<svg width="55" height="47" viewBox="0 0 55 47" fill="none" xmlns="http://www.w3.org/2000/svg">
<path fill-rule="evenodd" clip-rule="evenodd" d="M30.7804 21.29C33.8804 21.29 36.3104 23.86 36.3104 27.14C36.3104 33.06 28.2804 36.99 27.9304 37.15C27.8204 37.2 27.6904 37.24 27.5604 37.24L27.5704 37.49L27.5004 37.24C27.3604 37.24 27.2304 37.21 27.1004 37.15C26.7504 36.98 18.6904 33.06 18.6904 27.13C18.6904 23.85 21.1204 21.28 24.2204 21.28H24.2704C25.3804 21.28 26.4704 21.65 27.3504 22.32C27.4404 22.39 27.5604 22.39 27.6504 22.32C28.5504 21.65 29.6504 21.3 30.7804 21.29ZM27.3904 35.2C27.4304 35.22 27.4704 35.23 27.5104 35.23C27.5604 35.23 27.6004 35.22 27.6404 35.18C29.2404 34.31 34.4504 31.14 34.4504 27.12C34.4504 24.85 32.8704 23.14 30.7804 23.14C30.2804 23.13 29.8104 23.24 29.3704 23.44C28.9304 23.64 28.5304 23.94 28.2004 24.33C28.1204 24.43 28.0104 24.51 27.8904 24.57C27.7704 24.63 27.6404 24.66 27.5004 24.66C27.3604 24.66 27.2304 24.63 27.1104 24.58C26.9904 24.52 26.8804 24.45 26.8004 24.35C26.4804 23.97 26.0804 23.67 25.6404 23.46C25.2004 23.25 24.6804 23.14 24.2204 23.15C22.1304 23.15 20.5504 24.86 20.5504 27.13C20.5504 31.15 25.7904 34.32 27.3904 35.2Z" fill="#50515F"/>
<path fill-rule="evenodd" clip-rule="evenodd" d="M50.1403 22.8768L51.3803 23.72C51.4803 23.79 51.6003 23.84 51.7203 23.87C51.8403 23.9 51.9703 23.9 52.0903 23.87C52.2103 23.85 52.3303 23.8 52.4303 23.73C52.5303 23.66 52.6203 23.57 52.6903 23.47L54.8203 20.32C54.8903 20.22 54.9403 20.1 54.9603 19.98C54.9903 19.86 54.9903 19.73 54.9603 19.61C54.9403 19.49 54.8903 19.37 54.8203 19.27C54.7503 19.17 54.6603 19.08 54.5603 19.01L28.0303 0.16C27.8803 0.06 27.6903 0 27.5003 0C27.3103 0 27.1203 0.06 26.9703 0.16L0.420345 18.99C0.210345 19.13 0.0703448 19.35 0.0203448 19.6C-0.0296552 19.85 0.0303448 20.1 0.170345 20.31L2.30034 23.46C2.37034 23.56 2.46034 23.65 2.56034 23.72C2.66034 23.79 2.78034 23.84 2.90034 23.86C3.02034 23.88 3.15034 23.88 3.27034 23.86C3.39034 23.83 3.51034 23.79 3.61034 23.71L4.86034 22.86V45.09H0.120345V47H54.8903V45.09H50.1403V22.8768ZM2.27034 20.03L3.34034 21.61L26.9703 4.76C27.1203 4.66 27.3103 4.6 27.5003 4.6C27.6903 4.6 27.8803 4.66 28.0303 4.77L51.6603 21.61L52.7303 20.03L27.5003 2.1L2.27034 20.03ZM6.77034 21.58V45.1H48.2303V21.58L27.5003 6.71L6.77034 21.58Z" fill="#50515F"/>
</svg>
