<svg width="61" height="53" viewBox="0 0 61 53" fill="none" xmlns="http://www.w3.org/2000/svg">
<path d="M34.4564 40.2747H32.4812V42.229H34.4564V40.2747Z" fill="#50515F"/>
<path fill-rule="evenodd" clip-rule="evenodd" d="M56.7391 25.3304L55.4404 24.4578V50.0456H60.3785V51.9999H1.12192V50.0456H6.05995V46.0424C3.18602 45.5294 1.12192 42.8051 1.12192 39.2972C1.12192 36.9169 3.10016 31.5798 4.76033 27.5193C5.00153 26.9274 5.4684 26.4532 6.06007 26.1992V24.4577L4.76033 25.3313C4.65305 25.4035 4.53244 25.454 4.40539 25.48C4.27835 25.5061 4.14736 25.507 4.01994 25.4829C3.89252 25.4587 3.77116 25.41 3.66281 25.3394C3.55446 25.2688 3.46125 25.1777 3.38851 25.0714L1.1704 21.8362C1.02332 21.6217 0.968368 21.3583 1.01762 21.1037C1.06688 20.8492 1.21631 20.6244 1.43305 20.4789L30.1961 1.16856C30.3597 1.05872 30.5529 1 30.7507 1C30.9484 1 31.1416 1.05872 31.3052 1.16856L60.0664 20.4779C60.1738 20.5499 60.2658 20.6421 60.3371 20.7493C60.4085 20.8565 60.4578 20.9766 60.4822 21.1026C60.5066 21.2287 60.5056 21.3583 60.4793 21.484C60.4531 21.6097 60.402 21.729 60.3291 21.8352L58.111 25.0705C58.0382 25.1768 57.945 25.2679 57.8367 25.3385C57.7283 25.4091 57.6069 25.4578 57.4795 25.482C57.3521 25.5061 57.2211 25.5051 57.0941 25.4791C56.967 25.4531 56.8464 25.4026 56.7391 25.3304ZM3.35993 21.5463L4.46898 23.1654L30.1951 5.89205C30.3588 5.7819 30.5522 5.723 30.7501 5.723C30.9481 5.723 31.1415 5.7819 31.3052 5.89205L57.0315 23.1641L58.1406 21.5459L30.7502 3.15698L3.35993 21.5463ZM6.59012 28.2516C4.3697 33.6835 3.09692 37.7094 3.09692 39.2972C3.09692 42.128 4.75859 44.1829 7.04694 44.1829C9.33528 44.1829 10.9974 42.128 10.9974 39.2972C10.9974 37.7094 9.7244 33.6835 7.50421 28.2516C7.46747 28.1614 7.40432 28.0842 7.32288 28.0298C7.24144 27.9754 7.14542 27.9464 7.04717 27.9464C6.94891 27.9464 6.85289 27.9754 6.77145 28.0298C6.69001 28.0842 6.62687 28.1614 6.59012 28.2516ZM12.973 39.2972C12.973 42.8051 10.9089 45.5294 8.03496 46.0424L8.03519 50.0456H24.3195V31.4801C24.3194 31.3517 24.3448 31.2246 24.3944 31.106C24.444 30.9874 24.5168 30.8797 24.6085 30.7889C24.7002 30.6982 24.8091 30.6262 24.929 30.5772C25.0488 30.5281 25.1773 30.5029 25.307 30.503H36.1708C36.3005 30.5029 36.429 30.5281 36.5488 30.5772C36.6687 30.6262 36.7776 30.6982 36.8693 30.7889C36.9611 30.8797 37.0338 30.9874 37.0834 31.106C37.133 31.2246 37.1585 31.3517 37.1583 31.4801V50.0456H53.4652V23.1318L30.7502 7.8815L8.03519 23.1318V26.1992C8.62666 26.4532 9.09343 26.9271 9.3347 27.5187C10.9944 31.5797 12.973 36.9169 12.973 39.2972ZM26.2947 50.0456H35.1832V32.4572H26.2947V50.0456Z" fill="#50515F"/>
<path d="M34.4564 40.2747H32.4812V42.229H34.4564V40.2747Z" stroke="white" stroke-width="0.5"/>
<path fill-rule="evenodd" clip-rule="evenodd" d="M56.7391 25.3304L55.4404 24.4578V50.0456H60.3785V51.9999H1.12192V50.0456H6.05995V46.0424C3.18602 45.5294 1.12192 42.8051 1.12192 39.2972C1.12192 36.9169 3.10016 31.5798 4.76033 27.5193C5.00153 26.9274 5.4684 26.4532 6.06007 26.1992V24.4577L4.76033 25.3313C4.65305 25.4035 4.53244 25.454 4.40539 25.48C4.27835 25.5061 4.14736 25.507 4.01994 25.4829C3.89252 25.4587 3.77116 25.41 3.66281 25.3394C3.55446 25.2688 3.46125 25.1777 3.38851 25.0714L1.1704 21.8362C1.02332 21.6217 0.968368 21.3583 1.01762 21.1037C1.06688 20.8492 1.21631 20.6244 1.43305 20.4789L30.1961 1.16856C30.3597 1.05872 30.5529 1 30.7507 1C30.9484 1 31.1416 1.05872 31.3052 1.16856L60.0664 20.4779C60.1738 20.5499 60.2658 20.6421 60.3371 20.7493C60.4085 20.8565 60.4578 20.9766 60.4822 21.1026C60.5066 21.2287 60.5056 21.3583 60.4793 21.484C60.4531 21.6097 60.402 21.729 60.3291 21.8352L58.111 25.0705C58.0382 25.1768 57.945 25.2679 57.8367 25.3385C57.7283 25.4091 57.6069 25.4578 57.4795 25.482C57.3521 25.5061 57.2211 25.5051 57.0941 25.4791C56.967 25.4531 56.8464 25.4026 56.7391 25.3304ZM3.35993 21.5463L4.46898 23.1654L30.1951 5.89205C30.3588 5.7819 30.5522 5.723 30.7501 5.723C30.9481 5.723 31.1415 5.7819 31.3052 5.89205L57.0315 23.1641L58.1406 21.5459L30.7502 3.15698L3.35993 21.5463ZM6.59012 28.2516C4.3697 33.6835 3.09692 37.7094 3.09692 39.2972C3.09692 42.128 4.75859 44.1829 7.04694 44.1829C9.33528 44.1829 10.9974 42.128 10.9974 39.2972C10.9974 37.7094 9.7244 33.6835 7.50421 28.2516C7.46747 28.1614 7.40432 28.0842 7.32288 28.0298C7.24144 27.9754 7.14542 27.9464 7.04717 27.9464C6.94891 27.9464 6.85289 27.9754 6.77145 28.0298C6.69001 28.0842 6.62687 28.1614 6.59012 28.2516ZM12.973 39.2972C12.973 42.8051 10.9089 45.5294 8.03496 46.0424L8.03519 50.0456H24.3195V31.4801C24.3194 31.3517 24.3448 31.2246 24.3944 31.106C24.444 30.9874 24.5168 30.8797 24.6085 30.7889C24.7002 30.6982 24.8091 30.6262 24.929 30.5772C25.0488 30.5281 25.1773 30.5029 25.307 30.503H36.1708C36.3005 30.5029 36.429 30.5281 36.5488 30.5772C36.6687 30.6262 36.7776 30.6982 36.8693 30.7889C36.9611 30.8797 37.0338 30.9874 37.0834 31.106C37.133 31.2246 37.1585 31.3517 37.1583 31.4801V50.0456H53.4652V23.1318L30.7502 7.8815L8.03519 23.1318V26.1992C8.62666 26.4532 9.09343 26.9271 9.3347 27.5187C10.9944 31.5797 12.973 36.9169 12.973 39.2972ZM26.2947 50.0456H35.1832V32.4572H26.2947V50.0456Z" stroke="white" stroke-width="0.5"/>
</svg>
