<svg width="51" height="51" viewBox="0 0 51 51" fill="none" xmlns="http://www.w3.org/2000/svg">
<path fill-rule="evenodd" clip-rule="evenodd" d="M22.9603 26.52H28.0394C28.9372 26.5191 29.7979 26.163 30.4327 25.53C31.0675 24.897 31.4246 24.0387 31.4255 23.1434V18.0785C31.4246 17.1833 31.0675 16.325 30.4327 15.692C29.7979 15.0589 28.9372 14.7029 28.0394 14.702H22.9603C22.0625 14.7029 21.2018 15.0589 20.567 15.692C19.9322 16.325 19.5751 17.1833 19.5742 18.0785V23.1434C19.5751 24.0387 19.9322 24.897 20.567 25.53C21.2018 26.163 22.0625 26.5191 22.9603 26.52ZM21.2673 23.1434V21.4551H24.6534V24.8315H22.9603C22.5114 24.8311 22.0811 24.6531 21.7637 24.3366C21.4463 24.0201 21.2678 23.591 21.2673 23.1434ZM28.0394 24.8315H26.3464V21.4551H29.7323V23.1434C29.7318 23.591 29.5533 24.0201 29.2359 24.3365C28.9186 24.653 28.4883 24.831 28.0394 24.8315ZM29.7323 18.0785V19.7669H26.3464V16.3903H28.0394C28.4883 16.3908 28.9186 16.5688 29.236 16.8853C29.5533 17.2018 29.7318 17.631 29.7323 18.0785ZM22.9603 16.3903H24.6534V19.7669H21.2673V18.0785C21.2678 17.6309 21.4463 17.2018 21.7637 16.8853C22.0811 16.5688 22.5114 16.3908 22.9603 16.3903Z" fill="#50515F"/>
<path d="M19.5748 40.8703H17.8817V42.5587H19.5748V40.8703Z" fill="#50515F"/>
<path fill-rule="evenodd" clip-rule="evenodd" d="M46.6642 20.2642L47.7774 21.018C47.8693 21.0804 47.9727 21.124 48.0816 21.1465C48.1905 21.169 48.3028 21.1698 48.412 21.1489C48.5212 21.1281 48.6252 21.086 48.7181 21.025C48.811 20.964 48.8909 20.8853 48.9532 20.7935L50.8545 17.9985C50.917 17.9068 50.9608 17.8037 50.9833 17.6952C51.0059 17.5866 51.0067 17.4746 50.9858 17.3657C50.9649 17.2568 50.9226 17.1531 50.8615 17.0604C50.8003 16.9678 50.7214 16.8882 50.6294 16.826L25.9768 0.144873C25.8366 0.0499906 25.671 -0.000732422 25.5015 -0.000732422C25.332 -0.000732422 25.1664 0.0499906 25.0262 0.144873L0.372147 16.8268C0.18638 16.9525 0.0583027 17.1467 0.0160837 17.3666C-0.0261354 17.5865 0.0209617 17.8141 0.147016 17.9994L2.04828 20.7943C2.11063 20.8861 2.19053 20.9648 2.28339 21.0258C2.37626 21.0868 2.48027 21.1289 2.58948 21.1497C2.69869 21.1706 2.81095 21.1698 2.91984 21.1473C3.02872 21.1248 3.1321 21.0812 3.22405 21.0188L4.33809 20.2642V28.7101C3.83095 28.9296 3.43078 29.3392 3.22405 29.8505C1.80129 33.3587 0.105484 37.9695 0.105484 40.0258C0.105484 43.0562 1.87473 45.4096 4.33809 45.8529V49.3113H0.105484V50.9997H50.8968V49.311H46.6642V20.2642ZM2.97444 19.1474L2.0238 17.7487L25.5011 1.86272L48.9786 17.7486L48.0279 19.1465L25.9769 4.226C25.8366 4.13075 25.6707 4.07981 25.5009 4.07981C25.3311 4.07981 25.1653 4.13075 25.0249 4.226L2.97444 19.1474ZM1.79857 40.0256C1.79857 38.6538 2.8897 35.176 4.79275 30.4833C4.82415 30.4053 4.87827 30.3384 4.94812 30.2913C5.01797 30.2442 5.10036 30.2191 5.18469 30.2191C5.26901 30.2191 5.3514 30.2442 5.42125 30.2913C5.4911 30.3384 5.54522 30.4053 5.57662 30.4833C7.47957 35.1759 8.5708 38.6537 8.5708 40.0256C8.5708 42.471 7.14616 44.2463 5.18474 44.2463C3.22332 44.2463 1.79857 42.471 1.79857 40.0256ZM6.03118 45.8527C8.49454 45.4095 10.2638 43.0561 10.2638 40.0256C10.2638 37.9692 8.56819 33.3585 7.14522 29.8503C6.93844 29.3391 6.53828 28.9295 6.03118 28.7101V19.1186L25.5011 5.94417L44.9711 19.1186V35.5499L44.8289 35.3372C44.5151 34.867 43.7343 34.867 43.4203 35.3372L41.7272 37.8694C41.6346 38.0079 41.5851 38.1707 41.585 38.3371V40.0254H39.8919V38.3372C39.8917 38.1705 39.8423 38.0076 39.7498 37.8687L38.0567 35.3363C37.7428 34.8662 36.9621 34.8662 36.648 35.3363L34.9552 37.8687C34.8627 38.0076 34.8132 38.1705 34.813 38.3372V40.0256H33.1198V38.3372C33.1196 38.1705 33.0701 38.0076 32.9776 37.8687L31.2845 35.3363C30.9707 34.8662 30.19 34.8662 29.8759 35.3363L28.1828 37.8687C28.0903 38.0076 28.0409 38.1705 28.0406 38.3372V49.311H22.9616V33.2723C22.9617 33.1615 22.9399 33.0516 22.8974 32.9492C22.8549 32.8467 22.7925 32.7536 22.7139 32.6752C22.6353 32.5968 22.5419 32.5346 22.4391 32.4922C22.3364 32.4498 22.2263 32.4281 22.1151 32.4282H12.8033C12.6921 32.4281 12.582 32.4498 12.4792 32.4922C12.3765 32.5346 12.2831 32.5968 12.2045 32.6752C12.1258 32.7536 12.0635 32.8467 12.021 32.9492C11.9785 33.0516 11.9567 33.1615 11.9568 33.2723V49.311H6.03118V45.8527ZM29.7337 49.3111V38.593L30.5803 37.3268L31.4268 38.593V49.3111H29.7337ZM33.1199 41.7139H34.8129V43.4022H33.1198L33.1199 41.7139ZM33.1199 45.0904H34.8129V49.3111H33.1198L33.1199 45.0904ZM38.1991 49.3111H36.5059V38.593L37.3524 37.3268L38.1989 38.593L38.1991 49.3111ZM39.8921 41.7139H41.5852V43.4022H39.8919L39.8921 41.7139ZM39.8921 45.0904H41.5852V49.3111H39.8919L39.8921 45.0904ZM21.2685 49.311H13.6498V34.1165H21.2685V49.311ZM43.278 49.311V38.593L44.1245 37.3268L44.9711 38.593V49.311H43.278Z" fill="#50515F"/>
<path fill-rule="evenodd" clip-rule="evenodd" d="M22.9603 26.52H28.0394C28.9372 26.5191 29.7979 26.163 30.4327 25.53C31.0675 24.897 31.4246 24.0387 31.4255 23.1434V18.0785C31.4246 17.1833 31.0675 16.325 30.4327 15.692C29.7979 15.0589 28.9372 14.7029 28.0394 14.702H22.9603C22.0625 14.7029 21.2018 15.0589 20.567 15.692C19.9322 16.325 19.5751 17.1833 19.5742 18.0785V23.1434C19.5751 24.0387 19.9322 24.897 20.567 25.53C21.2018 26.163 22.0625 26.5191 22.9603 26.52ZM21.2673 23.1434V21.4551H24.6534V24.8315H22.9603C22.5114 24.8311 22.0811 24.6531 21.7637 24.3366C21.4463 24.0201 21.2678 23.591 21.2673 23.1434ZM28.0394 24.8315H26.3464V21.4551H29.7323V23.1434C29.7318 23.591 29.5533 24.0201 29.2359 24.3365C28.9186 24.653 28.4883 24.831 28.0394 24.8315ZM29.7323 18.0785V19.7669H26.3464V16.3903H28.0394C28.4883 16.3908 28.9186 16.5688 29.236 16.8853C29.5533 17.2018 29.7318 17.631 29.7323 18.0785ZM22.9603 16.3903H24.6534V19.7669H21.2673V18.0785C21.2678 17.6309 21.4463 17.2018 21.7637 16.8853C22.0811 16.5688 22.5114 16.3908 22.9603 16.3903Z" stroke="white" stroke-width="0.5"/>
<path d="M19.5748 40.8703H17.8817V42.5587H19.5748V40.8703Z" stroke="white" stroke-width="0.5"/>
<path fill-rule="evenodd" clip-rule="evenodd" d="M46.6642 20.2642L47.7774 21.018C47.8693 21.0804 47.9727 21.124 48.0816 21.1465C48.1905 21.169 48.3028 21.1698 48.412 21.1489C48.5212 21.1281 48.6252 21.086 48.7181 21.025C48.811 20.964 48.8909 20.8853 48.9532 20.7935L50.8545 17.9985C50.917 17.9068 50.9608 17.8037 50.9833 17.6952C51.0059 17.5866 51.0067 17.4746 50.9858 17.3657C50.9649 17.2568 50.9226 17.1531 50.8615 17.0604C50.8003 16.9678 50.7214 16.8882 50.6294 16.826L25.9768 0.144873C25.8366 0.0499906 25.671 -0.000732422 25.5015 -0.000732422C25.332 -0.000732422 25.1664 0.0499906 25.0262 0.144873L0.372147 16.8268C0.18638 16.9525 0.0583027 17.1467 0.0160837 17.3666C-0.0261354 17.5865 0.0209617 17.8141 0.147016 17.9994L2.04828 20.7943C2.11063 20.8861 2.19053 20.9648 2.28339 21.0258C2.37626 21.0868 2.48027 21.1289 2.58948 21.1497C2.69869 21.1706 2.81095 21.1698 2.91984 21.1473C3.02872 21.1248 3.1321 21.0812 3.22405 21.0188L4.33809 20.2642V28.7101C3.83095 28.9296 3.43078 29.3392 3.22405 29.8505C1.80129 33.3587 0.105484 37.9695 0.105484 40.0258C0.105484 43.0562 1.87473 45.4096 4.33809 45.8529V49.3113H0.105484V50.9997H50.8968V49.311H46.6642V20.2642ZM2.97444 19.1474L2.0238 17.7487L25.5011 1.86272L48.9786 17.7486L48.0279 19.1465L25.9769 4.226C25.8366 4.13075 25.6707 4.07981 25.5009 4.07981C25.3311 4.07981 25.1653 4.13075 25.0249 4.226L2.97444 19.1474ZM1.79857 40.0256C1.79857 38.6538 2.8897 35.176 4.79275 30.4833C4.82415 30.4053 4.87827 30.3384 4.94812 30.2913C5.01797 30.2442 5.10036 30.2191 5.18469 30.2191C5.26901 30.2191 5.3514 30.2442 5.42125 30.2913C5.4911 30.3384 5.54522 30.4053 5.57662 30.4833C7.47957 35.1759 8.5708 38.6537 8.5708 40.0256C8.5708 42.471 7.14616 44.2463 5.18474 44.2463C3.22332 44.2463 1.79857 42.471 1.79857 40.0256ZM6.03118 45.8527C8.49454 45.4095 10.2638 43.0561 10.2638 40.0256C10.2638 37.9692 8.56819 33.3585 7.14522 29.8503C6.93844 29.3391 6.53828 28.9295 6.03118 28.7101V19.1186L25.5011 5.94417L44.9711 19.1186V35.5499L44.8289 35.3372C44.5151 34.867 43.7343 34.867 43.4203 35.3372L41.7272 37.8694C41.6346 38.0079 41.5851 38.1707 41.585 38.3371V40.0254H39.8919V38.3372C39.8917 38.1705 39.8423 38.0076 39.7498 37.8687L38.0567 35.3363C37.7428 34.8662 36.9621 34.8662 36.648 35.3363L34.9552 37.8687C34.8627 38.0076 34.8132 38.1705 34.813 38.3372V40.0256H33.1198V38.3372C33.1196 38.1705 33.0701 38.0076 32.9776 37.8687L31.2845 35.3363C30.9707 34.8662 30.19 34.8662 29.8759 35.3363L28.1828 37.8687C28.0903 38.0076 28.0409 38.1705 28.0406 38.3372V49.311H22.9616V33.2723C22.9617 33.1615 22.9399 33.0516 22.8974 32.9492C22.8549 32.8467 22.7925 32.7536 22.7139 32.6752C22.6353 32.5968 22.5419 32.5346 22.4391 32.4922C22.3364 32.4498 22.2263 32.4281 22.1151 32.4282H12.8033C12.6921 32.4281 12.582 32.4498 12.4792 32.4922C12.3765 32.5346 12.2831 32.5968 12.2045 32.6752C12.1258 32.7536 12.0635 32.8467 12.021 32.9492C11.9785 33.0516 11.9567 33.1615 11.9568 33.2723V49.311H6.03118V45.8527ZM29.7337 49.3111V38.593L30.5803 37.3268L31.4268 38.593V49.3111H29.7337ZM33.1199 41.7139H34.8129V43.4022H33.1198L33.1199 41.7139ZM33.1199 45.0904H34.8129V49.3111H33.1198L33.1199 45.0904ZM38.1991 49.3111H36.5059V38.593L37.3524 37.3268L38.1989 38.593L38.1991 49.3111ZM39.8921 41.7139H41.5852V43.4022H39.8919L39.8921 41.7139ZM39.8921 45.0904H41.5852V49.3111H39.8919L39.8921 45.0904ZM21.2685 49.311H13.6498V34.1165H21.2685V49.311ZM43.278 49.311V38.593L44.1245 37.3268L44.9711 38.593V49.311H43.278Z" stroke="white" stroke-width="0.5"/>
</svg>
