<svg width="66" height="55" viewBox="0 0 66 55" fill="none" xmlns="http://www.w3.org/2000/svg">
<path fill-rule="evenodd" clip-rule="evenodd" d="M58.0324 50.5101C57.8566 50.6857 57.6182 50.7843 57.3695 50.7843H44.7424C44.4938 50.7843 44.2553 50.6857 44.0795 50.5101C43.9037 50.3346 43.8049 50.0965 43.8049 49.8482V33.2051C43.8049 32.9569 43.9037 32.7188 44.0795 32.5432C44.2553 32.3676 44.4938 32.269 44.7424 32.269H57.3695C57.6182 32.269 57.8566 32.3676 58.0324 32.5432C58.2082 32.7188 58.307 32.9569 58.307 33.2051V49.8482C58.307 50.0965 58.2082 50.3346 58.0324 50.5101ZM51.9934 44.8774H56.432V40.4454H51.9934V44.8774ZM45.6799 44.8774H50.1184V40.4454H45.6799V44.8774ZM45.6799 48.9121H56.432V46.7495H45.6799V48.9121ZM51.9934 38.5731H56.432V34.1411H51.9934V38.5731ZM50.1184 38.5732V34.1413H45.6799V38.5732H50.1184Z" fill="#50515F"/>
<path fill-rule="evenodd" clip-rule="evenodd" d="M21.2568 50.7843C21.5055 50.7843 21.7439 50.6857 21.9197 50.5101C22.0956 50.3346 22.1943 50.0965 22.1943 49.8482V33.2051C22.1943 32.9569 22.0956 32.7188 21.9197 32.5432C21.7439 32.3676 21.5055 32.269 21.2568 32.269H8.62973C8.38109 32.269 8.14264 32.3676 7.96682 32.5432C7.79101 32.7188 7.69223 32.9569 7.69223 33.2051V49.8482C7.69223 50.0965 7.79101 50.3346 7.96682 50.5101C8.14264 50.6857 8.38109 50.7843 8.62973 50.7843H21.2568ZM20.3193 44.8774H15.8808V40.4454H20.3193V44.8774ZM14.0058 44.8774H9.56723V40.4454H14.0058V44.8774ZM20.3193 48.9121H9.56723V46.7495H20.3193V48.9121ZM20.3193 38.5731H15.8808V34.1411H20.3193V38.5731ZM14.0058 34.1413V38.5732H9.56723V34.1413H14.0058Z" fill="#50515F"/>
<path fill-rule="evenodd" clip-rule="evenodd" d="M37.978 24.5051C37.978 23.522 37.686 22.561 37.139 21.7436C36.592 20.9261 35.8145 20.289 34.9049 19.9128C33.9952 19.5366 32.9943 19.4382 32.0286 19.63C31.063 19.8218 30.176 20.2952 29.4798 20.9904C28.7836 21.6856 28.3095 22.5713 28.1174 23.5356C27.9254 24.4998 28.0239 25.4992 28.4007 26.4075C28.7775 27.3158 29.4156 28.0921 30.2342 28.6383C31.0529 29.1845 32.0153 29.476 32.9999 29.476C34.3197 29.4746 35.5851 28.9504 36.5184 28.0185C37.4516 27.0865 37.9766 25.823 37.978 24.5051ZM29.8968 24.5051C29.8968 23.8923 30.0788 23.2932 30.4198 22.7837C30.7608 22.2742 31.2455 21.877 31.8125 21.6425C32.3795 21.408 33.0034 21.3467 33.6054 21.4663C34.2073 21.5858 34.7602 21.881 35.1942 22.3143C35.6282 22.7476 35.9237 23.2998 36.0434 23.9008C36.1631 24.5019 36.1017 25.1249 35.8668 25.6911C35.6319 26.2572 35.2342 26.7412 34.7239 27.0816C34.2136 27.4221 33.6136 27.6038 32.9999 27.6038C32.1772 27.6029 31.3884 27.2761 30.8067 26.6952C30.2249 26.1143 29.8977 25.3267 29.8968 24.5051Z" fill="#50515F"/>
<path fill-rule="evenodd" clip-rule="evenodd" d="M29.9697 36.3035H36.0307C36.2793 36.3035 36.5178 36.4022 36.6936 36.5777C36.8694 36.7533 36.9682 36.9914 36.9682 37.2397V41.2743C36.9682 41.5226 36.8694 41.7607 36.6936 41.9363C36.5178 42.1118 36.2793 42.2104 36.0307 42.2104H29.9697C29.7211 42.2104 29.4826 42.1118 29.3068 41.9363C29.131 41.7607 29.0322 41.5226 29.0322 41.2743V37.2397C29.0322 36.9914 29.131 36.7533 29.3068 36.5777C29.4826 36.4022 29.7211 36.3035 29.9697 36.3035ZM30.9072 40.3382H35.0932V38.1758H30.9072V40.3382Z" fill="#50515F"/>
<path fill-rule="evenodd" clip-rule="evenodd" d="M62.189 18.6518H62.7999C63.3831 18.6526 63.9423 18.8844 64.3547 19.2962C64.7671 19.708 64.9991 20.2663 64.9999 20.8487V22.6141C64.9992 23.1965 64.7671 23.7548 64.3547 24.1666C63.9423 24.5784 63.3831 24.8101 62.7999 24.8108H62.4749V52.19H64.9999V53.9999H1V52.19H3.525V24.8107H3.2C2.61674 24.81 2.05759 24.5783 1.64517 24.1665C1.23275 23.7547 1.00073 23.1964 1 22.614V20.8488C1.00066 20.2664 1.23265 19.708 1.64508 19.2961C2.05751 18.8843 2.6167 18.6525 3.2 18.6518H3.81112L9.53861 3.25392C9.78643 2.59349 10.2298 2.02407 10.8097 1.62143C11.3896 1.2188 12.0785 1.00204 12.7849 1H53.2149C53.9212 1.00202 54.6102 1.21877 55.1901 1.62141C55.77 2.02405 56.2133 2.59348 56.4612 3.25392L62.189 18.6518ZM5.39999 52.19H24.9913V33.2056C24.9913 32.9573 25.0901 32.7192 25.2659 32.5436C25.4417 32.3681 25.6802 32.2694 25.9288 32.2694H40.0711C40.3197 32.2694 40.5582 32.3681 40.734 32.5436C40.9098 32.7192 41.0086 32.9573 41.0086 33.2056V52.19H60.5999V24.8108H45.8795C45.4744 24.812 45.073 24.7328 44.6987 24.578C44.3244 24.4232 43.9845 24.1958 43.6988 23.9089L32.9999 13.2258L22.3008 23.9089C22.0151 24.1958 21.6752 24.4232 21.3009 24.5781C20.9265 24.7329 20.5252 24.8121 20.12 24.811H5.39999V52.19ZM11.8791 3.15716C11.6132 3.34178 11.4099 3.60288 11.2962 3.90571L5.81112 18.6518H18.8428L30.8192 6.69322C31.1056 6.40724 31.4455 6.18039 31.8197 6.02562C32.1939 5.87084 32.5949 5.79118 32.9999 5.79118C33.4049 5.79118 33.806 5.87084 34.1802 6.02562C34.5543 6.18039 34.8943 6.40724 35.1807 6.69322L47.157 18.6518H60.1886L54.7035 3.90571C54.5898 3.60289 54.3865 3.3418 54.1206 3.15719C53.8547 2.97257 53.5388 2.87318 53.2149 2.87224H12.7849C12.461 2.87316 12.1451 2.97255 11.8791 3.15716ZM63.0297 22.8434C63.0906 22.7826 63.1249 22.7 63.1249 22.614V20.8488C63.1249 20.7628 63.0906 20.6802 63.0297 20.6194C62.9687 20.5585 62.8861 20.5243 62.7999 20.5243H46.7679C46.5194 20.5241 46.2811 20.4253 46.1054 20.2497L33.8544 8.01689C33.7422 7.90478 33.6089 7.81585 33.4622 7.75517C33.3155 7.6945 33.1583 7.66327 32.9996 7.66327C32.8408 7.66327 32.6836 7.6945 32.5369 7.75517C32.3902 7.81585 32.257 7.90478 32.1447 8.01689L19.8937 20.2497C19.7181 20.4253 19.4798 20.5241 19.2312 20.5243H3.2C3.1138 20.5243 3.03114 20.5585 2.97019 20.6194C2.90924 20.6802 2.875 20.7628 2.875 20.8488V22.6142C2.875 22.7003 2.90924 22.7828 2.97019 22.8437C3.03114 22.9045 3.1138 22.9387 3.2 22.9387H20.1198C20.2787 22.9392 20.4361 22.9081 20.5829 22.8475C20.7297 22.7868 20.8629 22.6976 20.975 22.5851L32.3364 11.2401C32.4235 11.1532 32.5269 11.0842 32.6406 11.0371C32.7544 10.9901 32.8763 10.9659 32.9994 10.9659C33.1226 10.9659 33.2445 10.9901 33.3583 11.0371C33.472 11.0842 33.5754 11.1532 33.6624 11.2401L45.0245 22.5849C45.1366 22.6974 45.2698 22.7865 45.4166 22.8472C45.5633 22.9079 45.7207 22.9389 45.8795 22.9385H62.7999C62.8861 22.9385 62.9687 22.9043 63.0297 22.8434ZM28.2018 45.3626H26.8663V52.19H39.1337V34.1417H26.8663V43.4904H28.2018C28.4505 43.4904 28.6889 43.589 28.8647 43.7646C29.0406 43.9401 29.1393 44.1782 29.1393 44.4265C29.1393 44.6748 29.0406 44.9129 28.8647 45.0884C28.6889 45.264 28.4505 45.3626 28.2018 45.3626Z" fill="#50515F"/>
<path fill-rule="evenodd" clip-rule="evenodd" d="M58.0324 50.5101C57.8566 50.6857 57.6182 50.7843 57.3695 50.7843H44.7424C44.4938 50.7843 44.2553 50.6857 44.0795 50.5101C43.9037 50.3346 43.8049 50.0965 43.8049 49.8482V33.2051C43.8049 32.9569 43.9037 32.7188 44.0795 32.5432C44.2553 32.3676 44.4938 32.269 44.7424 32.269H57.3695C57.6182 32.269 57.8566 32.3676 58.0324 32.5432C58.2082 32.7188 58.307 32.9569 58.307 33.2051V49.8482C58.307 50.0965 58.2082 50.3346 58.0324 50.5101ZM51.9934 44.8774H56.432V40.4454H51.9934V44.8774ZM45.6799 44.8774H50.1184V40.4454H45.6799V44.8774ZM45.6799 48.9121H56.432V46.7495H45.6799V48.9121ZM51.9934 38.5731H56.432V34.1411H51.9934V38.5731ZM50.1184 38.5732V34.1413H45.6799V38.5732H50.1184Z" stroke="white" stroke-width="0.5"/>
<path fill-rule="evenodd" clip-rule="evenodd" d="M21.2568 50.7843C21.5055 50.7843 21.7439 50.6857 21.9197 50.5101C22.0956 50.3346 22.1943 50.0965 22.1943 49.8482V33.2051C22.1943 32.9569 22.0956 32.7188 21.9197 32.5432C21.7439 32.3676 21.5055 32.269 21.2568 32.269H8.62973C8.38109 32.269 8.14264 32.3676 7.96682 32.5432C7.79101 32.7188 7.69223 32.9569 7.69223 33.2051V49.8482C7.69223 50.0965 7.79101 50.3346 7.96682 50.5101C8.14264 50.6857 8.38109 50.7843 8.62973 50.7843H21.2568ZM20.3193 44.8774H15.8808V40.4454H20.3193V44.8774ZM14.0058 44.8774H9.56723V40.4454H14.0058V44.8774ZM20.3193 48.9121H9.56723V46.7495H20.3193V48.9121ZM20.3193 38.5731H15.8808V34.1411H20.3193V38.5731ZM14.0058 34.1413V38.5732H9.56723V34.1413H14.0058Z" stroke="white" stroke-width="0.5"/>
<path fill-rule="evenodd" clip-rule="evenodd" d="M37.978 24.5051C37.978 23.522 37.686 22.561 37.139 21.7436C36.592 20.9261 35.8145 20.289 34.9049 19.9128C33.9952 19.5366 32.9943 19.4382 32.0286 19.63C31.063 19.8218 30.176 20.2952 29.4798 20.9904C28.7836 21.6856 28.3095 22.5713 28.1174 23.5356C27.9254 24.4998 28.0239 25.4992 28.4007 26.4075C28.7775 27.3158 29.4156 28.0921 30.2342 28.6383C31.0529 29.1845 32.0153 29.476 32.9999 29.476C34.3197 29.4746 35.5851 28.9504 36.5184 28.0185C37.4516 27.0865 37.9766 25.823 37.978 24.5051ZM29.8968 24.5051C29.8968 23.8923 30.0788 23.2932 30.4198 22.7837C30.7608 22.2742 31.2455 21.877 31.8125 21.6425C32.3795 21.408 33.0034 21.3467 33.6054 21.4663C34.2073 21.5858 34.7602 21.881 35.1942 22.3143C35.6282 22.7476 35.9237 23.2998 36.0434 23.9008C36.1631 24.5019 36.1017 25.1249 35.8668 25.6911C35.6319 26.2572 35.2342 26.7412 34.7239 27.0816C34.2136 27.4221 33.6136 27.6038 32.9999 27.6038C32.1772 27.6029 31.3884 27.2761 30.8067 26.6952C30.2249 26.1143 29.8977 25.3267 29.8968 24.5051Z" stroke="white" stroke-width="0.5"/>
<path fill-rule="evenodd" clip-rule="evenodd" d="M29.9697 36.3035H36.0307C36.2793 36.3035 36.5178 36.4022 36.6936 36.5777C36.8694 36.7533 36.9682 36.9914 36.9682 37.2397V41.2743C36.9682 41.5226 36.8694 41.7607 36.6936 41.9363C36.5178 42.1118 36.2793 42.2104 36.0307 42.2104H29.9697C29.7211 42.2104 29.4826 42.1118 29.3068 41.9363C29.131 41.7607 29.0322 41.5226 29.0322 41.2743V37.2397C29.0322 36.9914 29.131 36.7533 29.3068 36.5777C29.4826 36.4022 29.7211 36.3035 29.9697 36.3035ZM30.9072 40.3382H35.0932V38.1758H30.9072V40.3382Z" stroke="white" stroke-width="0.5"/>
<path fill-rule="evenodd" clip-rule="evenodd" d="M62.189 18.6518H62.7999C63.3831 18.6526 63.9423 18.8844 64.3547 19.2962C64.7671 19.708 64.9991 20.2663 64.9999 20.8487V22.6141C64.9992 23.1965 64.7671 23.7548 64.3547 24.1666C63.9423 24.5784 63.3831 24.8101 62.7999 24.8108H62.4749V52.19H64.9999V53.9999H1V52.19H3.525V24.8107H3.2C2.61674 24.81 2.05759 24.5783 1.64517 24.1665C1.23275 23.7547 1.00073 23.1964 1 22.614V20.8488C1.00066 20.2664 1.23265 19.708 1.64508 19.2961C2.05751 18.8843 2.6167 18.6525 3.2 18.6518H3.81112L9.53861 3.25392C9.78643 2.59349 10.2298 2.02407 10.8097 1.62143C11.3896 1.2188 12.0785 1.00204 12.7849 1H53.2149C53.9212 1.00202 54.6102 1.21877 55.1901 1.62141C55.77 2.02405 56.2133 2.59348 56.4612 3.25392L62.189 18.6518ZM5.39999 52.19H24.9913V33.2056C24.9913 32.9573 25.0901 32.7192 25.2659 32.5436C25.4417 32.3681 25.6802 32.2694 25.9288 32.2694H40.0711C40.3197 32.2694 40.5582 32.3681 40.734 32.5436C40.9098 32.7192 41.0086 32.9573 41.0086 33.2056V52.19H60.5999V24.8108H45.8795C45.4744 24.812 45.073 24.7328 44.6987 24.578C44.3244 24.4232 43.9845 24.1958 43.6988 23.9089L32.9999 13.2258L22.3008 23.9089C22.0151 24.1958 21.6752 24.4232 21.3009 24.5781C20.9265 24.7329 20.5252 24.8121 20.12 24.811H5.39999V52.19ZM11.8791 3.15716C11.6132 3.34178 11.4099 3.60288 11.2962 3.90571L5.81112 18.6518H18.8428L30.8192 6.69322C31.1056 6.40724 31.4455 6.18039 31.8197 6.02562C32.1939 5.87084 32.5949 5.79118 32.9999 5.79118C33.4049 5.79118 33.806 5.87084 34.1802 6.02562C34.5543 6.18039 34.8943 6.40724 35.1807 6.69322L47.157 18.6518H60.1886L54.7035 3.90571C54.5898 3.60289 54.3865 3.3418 54.1206 3.15719C53.8547 2.97257 53.5388 2.87318 53.2149 2.87224H12.7849C12.461 2.87316 12.1451 2.97255 11.8791 3.15716ZM63.0297 22.8434C63.0906 22.7826 63.1249 22.7 63.1249 22.614V20.8488C63.1249 20.7628 63.0906 20.6802 63.0297 20.6194C62.9687 20.5585 62.8861 20.5243 62.7999 20.5243H46.7679C46.5194 20.5241 46.2811 20.4253 46.1054 20.2497L33.8544 8.01689C33.7422 7.90478 33.6089 7.81585 33.4622 7.75517C33.3155 7.6945 33.1583 7.66327 32.9996 7.66327C32.8408 7.66327 32.6836 7.6945 32.5369 7.75517C32.3902 7.81585 32.257 7.90478 32.1447 8.01689L19.8937 20.2497C19.7181 20.4253 19.4798 20.5241 19.2312 20.5243H3.2C3.1138 20.5243 3.03114 20.5585 2.97019 20.6194C2.90924 20.6802 2.875 20.7628 2.875 20.8488V22.6142C2.875 22.7003 2.90924 22.7828 2.97019 22.8437C3.03114 22.9045 3.1138 22.9387 3.2 22.9387H20.1198C20.2787 22.9392 20.4361 22.9081 20.5829 22.8475C20.7297 22.7868 20.8629 22.6976 20.975 22.5851L32.3364 11.2401C32.4235 11.1532 32.5269 11.0842 32.6406 11.0371C32.7544 10.9901 32.8763 10.9659 32.9994 10.9659C33.1226 10.9659 33.2445 10.9901 33.3583 11.0371C33.472 11.0842 33.5754 11.1532 33.6624 11.2401L45.0245 22.5849C45.1366 22.6974 45.2698 22.7865 45.4166 22.8472C45.5633 22.9079 45.7207 22.9389 45.8795 22.9385H62.7999C62.8861 22.9385 62.9687 22.9043 63.0297 22.8434ZM28.2018 45.3626H26.8663V52.19H39.1337V34.1417H26.8663V43.4904H28.2018C28.4505 43.4904 28.6889 43.589 28.8647 43.7646C29.0406 43.9401 29.1393 44.1782 29.1393 44.4265C29.1393 44.6748 29.0406 44.9129 28.8647 45.0884C28.6889 45.264 28.4505 45.3626 28.2018 45.3626Z" stroke="white" stroke-width="0.5"/>
</svg>
