<svg width="200" height="120" viewBox="0 0 244 130" fill="none" xmlns="http://www.w3.org/2000/svg">
<path d="M82.864 55.028C80.4594 55.028 78.9117 55.9253 77.4649 58.2241C77.1128 57.2625 76.4638 56.4379 75.6118 55.8697C74.7599 55.3014 73.7493 55.019 72.7262 55.0633C71.3399 55.0633 69.4646 55.5119 68.4462 57.3671L68.2143 56.0261C68.1869 55.8628 68.1025 55.7144 67.9761 55.6073C67.8496 55.5003 67.6894 55.4415 67.5237 55.4414H64.6704C64.4889 55.4479 64.3171 55.5246 64.1911 55.6553C64.0651 55.786 63.9948 55.9605 63.9949 56.1421V71.7093C63.9949 71.8951 64.0687 72.0734 64.2001 72.2048C64.3315 72.3362 64.5098 72.41 64.6956 72.41H68.0278C68.2137 72.41 68.3919 72.3362 68.5233 72.2048C68.6547 72.0734 68.7285 71.8951 68.7285 71.7093V63.3409C68.7285 61.4202 69.7368 59.6003 71.5919 59.6003C73.4471 59.6003 74.4553 61.0774 74.4553 63.3056V71.7093C74.4553 71.8951 74.5292 72.0734 74.6606 72.2048C74.792 72.3362 74.9702 72.41 75.1561 72.41H78.4278C78.6119 72.4074 78.7875 72.3324 78.9168 72.2012C79.046 72.0701 79.1185 71.8934 79.1184 71.7093V63.3056C79.1184 61.3849 79.9754 59.7012 81.8508 59.7012C83.7261 59.7012 84.5831 61.1077 84.5831 63.23V71.6992C84.5831 71.885 84.6569 72.0633 84.7883 72.1947C84.9197 72.3261 85.098 72.3999 85.2838 72.3999H88.6564C88.8422 72.3999 89.0204 72.3261 89.1518 72.1947C89.2833 72.0633 89.3571 71.885 89.3571 71.6992V63.1292C89.3571 56.8126 86.2618 55.0229 82.8741 55.0229" fill="#F37029"/>
<path d="M52.7073 54.917C51.6831 54.8731 50.663 55.0701 49.7288 55.4921C48.7946 55.9141 47.9724 56.5494 47.3283 57.3469V47.9803C47.3283 47.7918 47.2535 47.611 47.1202 47.4777C46.9868 47.3444 46.8061 47.2695 46.6175 47.2695H43.003C42.8185 47.2748 42.6433 47.3522 42.5152 47.485C42.387 47.6179 42.316 47.7957 42.3174 47.9803V71.6991C42.3167 71.7922 42.3345 71.8845 42.3697 71.9708C42.4048 72.057 42.4567 72.1354 42.5223 72.2014C42.5879 72.2675 42.666 72.3199 42.7519 72.3557C42.8379 72.3915 42.9301 72.4099 43.0232 72.4099H46.179C46.3451 72.4033 46.5037 72.3387 46.6271 72.2272C46.7506 72.1158 46.831 71.9646 46.8545 71.7999L47.0813 70.222C48.6743 72.2688 50.6102 72.7426 52.7678 72.7426C57.809 72.7426 61.237 69.1684 61.237 63.8248C61.237 58.2795 57.7081 54.9069 52.7022 54.9069M52.1729 68.2409C51.5896 68.2409 51.0121 68.1251 50.4739 67.9003C49.9357 67.6754 49.4475 67.3459 49.0376 66.9308C48.6278 66.5158 48.3044 66.0235 48.0863 65.4826C47.8681 64.9416 47.7596 64.3627 47.7669 63.7794C47.7962 62.6365 48.2625 61.5484 49.07 60.739C49.8775 59.9297 50.9646 59.4608 52.1074 59.4289C53.2759 59.4202 54.4001 59.876 55.2325 60.6962C56.0649 61.5163 56.5375 62.6336 56.5462 63.8021C56.5548 64.9706 56.099 66.0948 55.2788 66.9272C54.4587 67.7596 53.3415 68.2322 52.1729 68.2409" fill="#F37029"/>
<path d="M28.0662 56.6517C28.0661 56.4501 28.1096 56.251 28.1935 56.0677C28.2774 55.8845 28.3999 55.7216 28.5526 55.59C28.7052 55.4584 28.8844 55.3613 29.078 55.3052C29.2716 55.2492 29.475 55.2356 29.6743 55.2653C31.8815 55.6013 33.8954 56.7162 35.3518 58.4084C36.8082 60.1005 37.6107 62.2581 37.6142 64.4907C37.6142 71.8105 31.7311 73.3884 29.2105 73.7312C29.0675 73.7499 28.9222 73.7378 28.7843 73.6956C28.6464 73.6534 28.5192 73.5821 28.4112 73.4866C28.3032 73.391 28.217 73.2734 28.1584 73.1417C28.0997 73.0099 28.07 72.8671 28.0712 72.723C28.0712 72.723 28.0712 60.8963 28.0712 56.6668" fill="#442B70"/>
<path d="M20.6809 65.0657H24.86C25.7113 65.0643 26.5273 64.7256 27.1292 64.1236C27.7312 63.5217 28.0699 62.7057 28.0713 61.8544V47.4467C28.0649 47.1813 27.9566 46.9286 27.7689 46.7409C27.5812 46.5532 27.3284 46.4449 27.063 46.4385H25.0869C23.6442 46.4371 22.2598 47.0079 21.2373 48.0257C20.2149 49.0435 19.6377 50.4252 19.6323 51.8678V64.0272C19.635 64.3035 19.7466 64.5676 19.943 64.7621C20.1393 64.9566 20.4045 65.0657 20.6809 65.0657Z" fill="#F37029"/>
<path d="M107.117 70.147C108.253 69.5713 109.207 68.6905 109.871 67.6034C110.536 66.5163 110.884 65.2656 110.878 63.9917C110.924 62.1486 110.411 60.3348 109.406 58.7892L111.004 56.9441C111.067 56.8696 111.114 56.7831 111.143 56.6897C111.172 56.5964 111.181 56.4982 111.171 56.4011C111.161 56.304 111.131 56.21 111.083 56.1248C111.035 56.0396 110.97 55.965 110.893 55.9056L108.317 53.9295C108.164 53.8147 107.972 53.7652 107.783 53.7916C107.594 53.8181 107.424 53.9184 107.309 54.0706L105.942 55.8804C104.563 55.2629 103.068 54.9466 101.557 54.9528C96.6464 54.9528 92.064 57.9473 92.064 63.9211C92.064 69.3656 95.7995 72.7785 101.567 72.7785C104.732 72.7785 105.831 74.0942 105.831 75.8032C105.831 77.9759 103.77 79.0396 101.491 79.0396C99.3283 79.0396 97.5538 78.3137 97.1556 76.0804C97.1239 75.9136 97.0352 75.7629 96.9046 75.6543C96.7739 75.5458 96.6096 75.4861 96.4397 75.4856H93.0571C92.9574 75.4853 92.8586 75.5056 92.7671 75.5452C92.6756 75.5848 92.5932 75.6429 92.5251 75.7157C92.457 75.7885 92.4046 75.8746 92.3712 75.9686C92.3379 76.0626 92.3242 76.1624 92.3312 76.2619C92.5832 80.8444 95.7289 83.5616 101.491 83.5616C106.331 83.5616 111.029 81.041 111.029 75.8032C111.029 74.7949 111.029 71.8912 107.117 70.147M101.491 68.2162C100.908 68.2162 100.331 68.1004 99.7927 67.8755C99.2548 67.6505 98.7669 67.321 98.3575 66.9059C97.948 66.4908 97.6251 65.9984 97.4075 65.4575C97.1899 64.9165 97.082 64.3377 97.09 63.7547C97.1193 62.6137 97.5853 61.5273 98.392 60.7197C99.1986 59.9122 100.284 59.4449 101.425 59.4143C102.003 59.41 102.577 59.5195 103.112 59.7367C103.648 59.9539 104.135 60.2745 104.547 60.6801C104.959 61.0857 105.286 61.5685 105.512 62.1008C105.737 62.6331 105.855 63.2045 105.859 63.7825C105.863 64.3604 105.754 64.9335 105.537 65.4691C105.32 66.0047 104.999 66.4923 104.593 66.904C104.188 67.3157 103.705 67.6435 103.173 67.8686C102.64 68.0938 102.069 68.2119 101.491 68.2162" fill="#F37029"/>
<path d="M223.009 62.2021C222.953 62.2642 222.876 62.3021 222.793 62.3078C222.71 62.3134 222.628 62.2864 222.565 62.2323C221.607 61.4898 220.412 61.1207 219.203 61.1938C217.438 61.1686 216.012 61.7887 216.037 63.0591C216.062 64.3295 217.62 64.7731 219.228 64.9546C221.562 65.2369 224.672 65.7057 224.617 68.8665C224.566 71.4325 222.132 72.7029 219.253 72.7029C217.186 72.7029 215.139 72.1534 213.708 70.4948C213.66 70.4384 213.634 70.367 213.634 70.2932C213.634 70.2194 213.66 70.1479 213.708 70.0915L214.524 69.0833C214.554 69.0491 214.591 69.0217 214.632 69.0029C214.674 68.9841 214.719 68.9743 214.764 68.9743C214.809 68.9743 214.854 68.9841 214.895 69.0029C214.937 69.0217 214.974 69.0491 215.003 69.0833C215.576 69.6355 216.252 70.0693 216.992 70.36C217.733 70.6506 218.523 70.7924 219.319 70.7771C220.72 70.7771 222.51 70.3335 222.56 68.7607C222.585 67.3592 221.083 66.9458 219.112 66.7089C216.652 66.4014 214.005 65.7511 214.005 63.0288C214.005 60.3066 216.727 59.2429 219.193 59.2732C220.868 59.1974 222.513 59.7351 223.82 60.7855C223.853 60.8127 223.88 60.8461 223.899 60.8837C223.919 60.9214 223.93 60.9626 223.934 61.0049C223.937 61.0472 223.932 61.0897 223.918 61.13C223.905 61.1702 223.884 61.2074 223.856 61.2392L223.009 62.2021Z" fill="#F37029"/>
<path d="M156.601 70.1468C156.656 70.2016 156.687 70.2759 156.687 70.3534C156.687 70.431 156.656 70.5053 156.601 70.5601C155.286 71.9465 153.173 72.627 151.273 72.627C147.29 72.627 144.513 69.9854 144.538 65.8869C144.551 65.0061 144.738 64.1365 145.088 63.3281C145.439 62.5198 145.945 61.7887 146.579 61.1768C147.213 60.565 147.962 60.0845 148.782 59.7629C149.602 59.4414 150.478 59.2851 151.358 59.3032C155.049 59.3788 157.857 61.6322 157.615 66.3054C157.603 66.4431 157.54 66.5715 157.438 66.6649C157.337 66.7583 157.203 66.81 157.065 66.8095H146.7C146.937 69.1688 148.878 70.6458 151.343 70.6458C152.767 70.6734 154.152 70.1825 155.24 69.2645C155.295 69.2097 155.369 69.179 155.447 69.179C155.524 69.179 155.599 69.2097 155.654 69.2645L156.601 70.1468ZM155.568 65.0652C155.462 62.5799 153.753 61.2289 151.238 61.2289C149.009 61.2289 147.063 62.5799 146.7 65.04H155.568V65.0652Z" fill="#F37029"/>
<path d="M166.331 78.0664C168.534 78.0664 170.843 77.2648 170.843 75.0417C170.843 72.9698 168.741 71.9565 166.356 71.9565C162.323 71.9565 159.591 69.6224 159.591 65.6298C159.591 61.4053 163.064 59.2779 166.356 59.2779C167.631 59.2603 168.887 59.5934 169.986 60.2408L171.12 58.8645C171.184 58.7962 171.27 58.7534 171.363 58.7441C171.455 58.7348 171.548 58.7597 171.624 58.8141L172.532 59.53C172.572 59.5617 172.605 59.6012 172.629 59.6462C172.653 59.6911 172.668 59.7405 172.673 59.7914C172.678 59.8423 172.672 59.8936 172.657 59.9422C172.641 59.9909 172.615 60.0358 172.582 60.0744L171.387 61.4859C171.927 62.0303 172.352 62.6776 172.637 63.3895C172.922 64.1013 173.061 64.8632 173.046 65.6298C173.046 67.8076 171.932 70.0358 169.441 70.8424C171.932 71.5683 172.97 73.1764 172.97 75.0165C172.97 78.3336 169.678 80.0173 166.286 80.0173C162.57 80.0173 159.863 78.1471 159.732 74.9358C159.731 74.8851 159.741 74.8347 159.76 74.7876C159.779 74.7406 159.807 74.6977 159.842 74.6616C159.878 74.6255 159.92 74.5969 159.967 74.5773C160.014 74.5577 160.064 74.5476 160.115 74.5476H161.416C161.513 74.55 161.605 74.5885 161.675 74.6557C161.745 74.7229 161.788 74.8138 161.794 74.9106C162.001 77.1338 164.098 78.0513 166.331 78.0714M166.381 70.0912C166.979 70.1186 167.577 70.0239 168.137 69.813C168.698 69.602 169.209 69.2792 169.641 68.8641C170.072 68.449 170.415 67.9505 170.647 67.3988C170.88 66.847 170.998 66.2537 170.994 65.655C170.994 62.7261 168.766 61.2238 166.356 61.2238C164.072 61.2238 161.688 62.6504 161.688 65.6298C161.688 68.6091 163.81 70.1064 166.371 70.1064" fill="#F37029"/>
<path d="M185.291 72.0326V70.3438C184.789 71.0634 184.117 71.6482 183.336 72.0465C182.554 72.4448 181.686 72.6444 180.809 72.6275C177.542 72.6275 175.239 70.4194 175.239 66.689V59.9439C175.239 59.8489 175.276 59.7579 175.343 59.6908C175.41 59.6236 175.502 59.5859 175.596 59.5859H177.008C177.055 59.5859 177.101 59.5952 177.144 59.6133C177.187 59.6313 177.226 59.6578 177.259 59.6911C177.292 59.7244 177.318 59.7639 177.335 59.8073C177.353 59.8507 177.362 59.8971 177.361 59.9439V66.6386C177.361 69.0987 178.813 70.6312 181.253 70.6312C183.587 70.6312 185.19 68.7659 185.19 66.4571V59.9439C185.19 59.8489 185.228 59.7579 185.295 59.6908C185.362 59.6236 185.453 59.5859 185.548 59.5859H186.959C187.054 59.5859 187.145 59.6236 187.212 59.6908C187.279 59.7579 187.317 59.8489 187.317 59.9439V72.0427C187.317 72.0895 187.308 72.1358 187.29 72.1789C187.272 72.2221 187.245 72.2612 187.212 72.294C187.179 72.3269 187.139 72.3528 187.096 72.3702C187.052 72.3876 187.006 72.3963 186.959 72.3956H185.654C185.606 72.3963 185.559 72.3875 185.515 72.3698C185.471 72.3521 185.431 72.3259 185.397 72.2926C185.363 72.2593 185.337 72.2196 185.318 72.1758C185.3 72.1321 185.291 72.0851 185.291 72.0377" fill="#F37029"/>
<path d="M192.358 61.4808C193.236 59.8172 194.819 59.3534 196.296 59.3534C197.242 59.3351 198.172 59.5945 198.972 60.0995C199.059 60.1573 199.12 60.2453 199.144 60.3462C199.168 60.447 199.154 60.5533 199.104 60.644L198.524 61.7379C198.499 61.7859 198.465 61.8283 198.423 61.8627C198.381 61.8972 198.333 61.9229 198.282 61.9384C198.23 61.9539 198.176 61.9589 198.122 61.9531C198.068 61.9472 198.016 61.9306 197.969 61.9043C197.388 61.5812 196.733 61.4163 196.068 61.426C195.404 61.4357 194.754 61.6197 194.183 61.9596C193.611 62.2995 193.14 62.7834 192.814 63.3629C192.489 63.9424 192.321 64.5972 192.328 65.2617V71.9816C192.328 72.0899 192.285 72.1938 192.209 72.2704C192.132 72.3469 192.028 72.39 191.92 72.39H190.614C190.506 72.39 190.402 72.3469 190.325 72.2704C190.249 72.1938 190.206 72.0899 190.206 71.9816V59.9937C190.206 59.8854 190.249 59.7815 190.325 59.7049C190.402 59.6284 190.506 59.5853 190.614 59.5853H191.955C192.064 59.5867 192.168 59.6308 192.244 59.7082C192.321 59.7856 192.363 59.89 192.363 59.9987L192.358 61.4808Z" fill="#F37029"/>
<path d="M205.692 59.3037C209.604 59.3037 212.352 62.0512 212.352 66.0135C212.352 69.9759 209.554 72.6276 205.692 72.6276C201.831 72.6276 199.053 69.9053 199.053 66.0135C199.053 62.1217 201.881 59.3037 205.692 59.3037ZM205.718 61.2446C203.096 61.2446 201.181 63.1653 201.181 66.0135C201.181 68.7106 203.071 70.6313 205.692 70.6313C208.314 70.6313 210.23 68.7106 210.255 66.0135C210.255 63.1653 208.284 61.2446 205.718 61.2446" fill="#F37029"/>
<path d="M119.639 71.8155H120.673C120.938 71.8091 121.191 71.7009 121.379 71.5132C121.566 71.3254 121.675 71.0727 121.681 70.8073V57.1306C121.681 57.0423 121.646 56.9577 121.584 56.8953C121.521 56.8329 121.437 56.7979 121.348 56.7979H120.718C120.336 56.7979 119.969 56.9498 119.699 57.2201C119.428 57.4905 119.276 57.8572 119.276 58.2396V71.4778C119.276 71.5674 119.312 71.6533 119.375 71.7166C119.439 71.78 119.525 71.8155 119.614 71.8155" fill="#432B6F"/>
<path d="M136.129 62.8724C133.81 62.4943 131.728 62.0104 131.728 60.2611C131.728 58.3757 133.861 57.5338 135.978 57.5338C137.868 57.559 139.461 58.2093 140.328 59.2881C140.388 59.3693 140.476 59.4255 140.574 59.446C140.673 59.4665 140.776 59.4497 140.863 59.3991L141.826 58.8092C141.873 58.7804 141.914 58.7424 141.947 58.6974C141.979 58.6523 142.002 58.6013 142.014 58.5472C142.026 58.4931 142.028 58.4371 142.018 58.3825C142.008 58.3279 141.987 58.2759 141.957 58.2295C140.404 55.9358 138.05 55.6182 135.907 55.6182C133.765 55.6182 131.784 56.2735 130.69 57.3675C130.317 57.7392 130.025 58.1843 129.834 58.6746C129.642 59.1649 129.554 59.6897 129.576 60.2157C129.576 63.5227 132.676 64.2789 135.852 64.7528C138.13 65.0956 140.56 65.63 140.535 67.6616C140.535 68.3572 140.202 70.6207 135.953 70.6207C134.981 70.6413 134.019 70.4275 133.148 69.9976C132.276 69.5676 131.521 68.9341 130.947 68.1506C130.888 68.059 130.796 67.9932 130.691 67.9661C130.585 67.939 130.473 67.9527 130.377 68.0044L129.293 68.6244C129.199 68.6776 129.13 68.7649 129.099 68.8683C129.068 68.9716 129.078 69.0829 129.127 69.179C130.337 71.3971 132.731 72.612 135.933 72.612C139.134 72.612 142.637 71.3315 142.662 67.7321C142.662 63.8756 139.023 63.311 136.109 62.8573" fill="#F37029"/>
</svg>
